<svg width="38" height="35" viewBox="0 0 38 35" fill="none" xmlns="http://www.w3.org/2000/svg">
<rect width="38" height="35" rx="17.5" fill="url(#paint0_linear_131_1088)" fill-opacity="0.3"/>
<path d="M19.0124 22.6392C21.0906 22.6392 22.6168 21.3963 22.6119 19.706C22.6168 18.4183 21.8363 17.4936 20.484 17.2848V17.2053C21.5479 16.9318 22.239 16.0966 22.234 14.9531C22.239 13.4567 21.011 12.179 19.0522 12.179C17.1829 12.179 15.6815 13.3075 15.6317 14.9631H17.1183C17.1531 14.0284 18.033 13.4616 19.0323 13.4616C20.0714 13.4616 20.7525 14.093 20.7475 15.0327C20.7525 16.017 19.962 16.6634 18.8335 16.6634H17.9734V17.9162H18.8335C20.2454 17.9162 21.0607 18.6321 21.0607 19.6562C21.0607 20.6456 20.2006 21.3168 19.0025 21.3168C17.8988 21.3168 17.0387 20.75 16.979 19.8452H15.418C15.4826 21.5057 16.9542 22.6392 19.0124 22.6392Z" fill="#3F4E65"/>
<defs>
<linearGradient id="paint0_linear_131_1088" x1="2.99023e-07" y1="17.7966" x2="36.955" y2="17.7966" gradientUnits="userSpaceOnUse">
<stop stop-color="#FFC650"/>
<stop offset="1" stop-color="#FECA6E"/>
</linearGradient>
</defs>
</svg>
