<svg width="27" height="27" viewBox="0 0 27 27" fill="none" xmlns="http://www.w3.org/2000/svg">
<path d="M24.4476 8.09234C24.2951 7.87933 24.0905 7.77282 23.8337 7.77282H7.48719L7.04354 6.61782C6.93119 6.23913 6.77872 5.91568 6.58612 5.64744C6.39353 5.37921 6.1889 5.18987 5.97223 5.07942C5.75556 4.96897 5.56697 4.89403 5.40648 4.85458C5.24598 4.81513 5.08549 4.79541 4.92499 4.79541H1.6268C1.41815 4.79541 1.24161 4.86641 1.09716 5.00842C0.952716 5.15042 0.880493 5.33188 0.880493 5.55277C0.880493 5.679 0.912592 5.80128 0.976791 5.91962C1.04099 6.03796 1.13327 6.12869 1.25365 6.1918C1.37402 6.25491 1.4984 6.28647 1.6268 6.28647H4.92499C4.98919 6.28647 5.04937 6.29436 5.10555 6.31014C5.16172 6.32592 5.23796 6.39297 5.33425 6.51131C5.43055 6.62965 5.5108 6.80716 5.575 7.04383L9.02795 16.5251C9.06005 16.6197 9.11221 16.7105 9.18444 16.7973C9.25666 16.884 9.34092 16.9511 9.43722 16.9984C9.53352 17.0458 9.63784 17.0694 9.75019 17.0694H20.1503C20.3108 17.0694 20.4593 17.0221 20.5957 16.9274C20.7321 16.8328 20.8244 16.7144 20.8726 16.5724L24.5559 8.79053C24.6362 8.53808 24.6001 8.30534 24.4476 8.09234ZM19.6207 15.5547H10.352L7.89646 9.28755H22.7263L19.6207 15.5547ZM18.2324 17.8908C17.7028 17.8908 17.2494 18.0762 16.8722 18.447C16.495 18.8178 16.3064 19.2635 16.3064 19.7842C16.3064 20.3049 16.495 20.7506 16.8722 21.1214C17.2494 21.4922 17.7028 21.6776 18.2324 21.6776C18.762 21.6776 19.2154 21.4922 19.5926 21.1214C19.9698 20.7506 20.1583 20.3049 20.1583 19.7842C20.1583 19.2635 19.9698 18.8178 19.5926 18.447C19.2154 18.0762 18.762 17.8908 18.2324 17.8908ZM11.299 17.8908C10.9459 17.8908 10.6209 17.9776 10.324 18.1511C10.027 18.3247 9.79432 18.5535 9.6258 18.8375C9.45728 19.1215 9.37302 19.4371 9.37302 19.7842C9.37302 20.3049 9.5616 20.7506 9.93877 21.1214C10.3159 21.4922 10.7693 21.6776 11.299 21.6776C11.8286 21.6776 12.282 21.4922 12.6592 21.1214C13.0363 20.7506 13.2249 20.3049 13.2249 19.7842C13.2249 19.658 13.2129 19.5318 13.1888 19.4055C13.1647 19.2793 13.1286 19.161 13.0805 19.0505C13.0323 18.9401 12.9721 18.8336 12.8999 18.731C12.8277 18.6284 12.7474 18.5338 12.6592 18.447C12.5709 18.3602 12.4746 18.2813 12.3703 18.2103C12.266 18.1393 12.1576 18.0801 12.0453 18.0328C11.9329 17.9855 11.8126 17.95 11.6842 17.9263C11.5558 17.9026 11.4274 17.8908 11.299 17.8908Z" fill="white"/>
</svg>
