<svg width="735" height="424" viewBox="0 0 735 424" fill="none" xmlns="http://www.w3.org/2000/svg">
<path d="M0 7.99999C0 3.58172 3.58172 0 8 0H727C731.418 0 735 3.58172 735 8V416C735 420.418 731.418 424 727 424H7.99999C3.58172 424 0 420.418 0 416V7.99999Z" fill="white"/>
<path d="M113.404 293H114.733V286.317H122.985V293H124.314V278.455H122.985V285.124H114.733V278.455H113.404V293ZM130.954 293.249C132.772 293.249 133.88 292.24 134.335 291.274H134.413V293H135.677V285.592C135.677 282.666 133.475 281.942 131.806 281.942C130.137 281.942 128.419 282.602 127.68 284.385L128.88 284.818C129.278 283.881 130.265 283.078 131.842 283.078C133.497 283.078 134.413 283.987 134.413 285.479V285.734C134.413 286.558 133.39 286.572 131.558 286.8C129.093 287.105 127.368 287.794 127.368 289.953C127.368 292.055 128.973 293.249 130.954 293.249ZM131.125 292.091C129.697 292.091 128.632 291.331 128.632 290.01C128.632 288.689 129.711 288.135 131.558 287.908C132.453 287.801 134.044 287.602 134.413 287.24V288.817C134.413 290.607 133.142 292.091 131.125 292.091ZM139.04 282.091V293H151.782V282.091H150.517V291.807H146.043V282.091H144.779V291.807H140.304V282.091H139.04ZM166.462 291.232L162.4 282.091H160.759V293H162.023V283.994L165.958 293H166.966L170.901 284.101V293H172.165V282.091H170.56L166.462 291.232ZM179.935 293.227C182.123 293.227 183.593 292.041 184.09 290.67L182.89 290.28C182.471 291.26 181.483 292.07 179.935 292.07C177.705 292.07 176.292 290.443 176.235 287.922H184.36V287.297C184.36 283.653 182.108 281.942 179.743 281.942C176.917 281.942 174.963 284.307 174.963 287.609C174.963 290.919 176.881 293.227 179.935 293.227ZM176.242 286.807C176.377 284.776 177.748 283.092 179.743 283.092C181.696 283.092 183.067 284.705 183.067 286.807H176.242ZM188.41 282.091H187.146V293H188.41V288.149H194.177V293H195.441V282.091H194.177V286.956H188.41V282.091ZM203.216 293.227C205.404 293.227 206.874 292.041 207.371 290.67L206.171 290.28C205.752 291.26 204.765 292.07 203.216 292.07C200.986 292.07 199.573 290.443 199.516 287.922H207.641V287.297C207.641 283.653 205.39 281.942 203.025 281.942C200.198 281.942 198.245 284.307 198.245 287.609C198.245 290.919 200.162 293.227 203.216 293.227ZM199.523 286.807C199.658 284.776 201.029 283.092 203.025 283.092C204.978 283.092 206.348 284.705 206.348 286.807H199.523ZM209.134 296.104H210.406V293H218.921V296.104H220.185V291.807H218.566V282.091H212.11L211.712 286.658C211.464 289.484 211.009 290.749 210.079 291.807H209.134V296.104ZM211.535 291.807C212.38 290.649 212.735 288.945 212.962 286.658L213.289 283.284H217.302V291.807H211.535ZM221.913 293H223.475L227.737 288.135H228.433V293H229.704V288.135H230.4L234.647 293H236.21L231.409 287.489L236.146 282.091H234.605L230.422 286.942H229.704V282.091H228.433V286.942H227.701L223.518 282.091H221.977L226.728 287.489L221.913 293ZM242.826 293.227C245.013 293.227 246.483 292.041 246.98 290.67L245.78 290.28C245.361 291.26 244.374 292.07 242.826 292.07C240.596 292.07 239.182 290.443 239.125 287.922H247.25V287.297C247.25 283.653 244.999 281.942 242.634 281.942C239.807 281.942 237.854 284.307 237.854 287.609C237.854 290.919 239.772 293.227 242.826 293.227ZM239.132 286.807C239.267 284.776 240.638 283.092 242.634 283.092C244.587 283.092 245.958 284.705 245.958 286.807H239.132ZM250.015 297.091H251.286V290.976H251.4C251.833 291.977 252.771 293.227 254.752 293.227C257.423 293.227 259.241 290.955 259.241 287.574C259.241 284.207 257.43 281.942 254.731 281.942C252.728 281.942 251.84 283.192 251.4 284.172H251.244V282.091H250.015V297.091ZM251.265 287.553C251.265 284.939 252.465 283.092 254.596 283.092C256.79 283.092 257.969 285.038 257.969 287.553C257.969 290.095 256.769 292.07 254.596 292.07C252.487 292.07 251.265 290.188 251.265 287.553ZM271.895 293.227C274.168 293.227 275.766 291.793 276.057 289.818H274.779C274.488 291.21 273.344 292.07 271.895 292.07C269.757 292.07 268.344 290.209 268.344 287.553C268.344 284.911 269.8 283.092 271.895 283.092C273.451 283.092 274.502 284.094 274.772 285.33H276.05C275.752 283.305 274.061 281.942 271.874 281.942C269.019 281.942 267.073 284.314 267.073 287.595C267.073 290.848 268.962 293.227 271.895 293.227ZM278.767 293H283.689C285.805 293 287.147 291.75 287.147 290.045C287.147 288.433 286.004 287.474 284.747 287.254C285.997 286.935 286.814 286.175 286.814 284.875C286.814 283.178 285.386 282.091 283.064 282.091H278.767V293ZM279.974 291.828V287.922H283.831C285.059 287.922 285.855 288.717 285.855 289.939C285.855 291.089 285.017 291.828 283.689 291.828H279.974ZM279.974 286.8V283.263H283.064C284.626 283.263 285.542 283.888 285.542 284.953C285.549 286.082 284.612 286.8 283.142 286.8H279.974ZM296.482 293H297.689V282.091H293.477C291.119 282.091 289.82 283.199 289.82 285.195C289.82 286.736 290.565 287.751 291.943 288.135L289.131 293H290.516L293.229 288.305C293.271 288.305 293.307 288.305 293.342 288.305H296.482V293ZM296.482 287.112H293.342C291.865 287.112 291.091 286.473 291.091 285.195C291.091 283.916 291.908 283.27 293.477 283.263H296.482V287.112ZM300.37 293H301.933L306.194 288.135H306.89V293H308.161V288.135H308.857L313.104 293H314.667L309.866 287.489L314.603 282.091H313.062L308.879 286.942H308.161V282.091H306.89V286.942H306.158L301.975 282.091H300.434L305.185 287.489L300.37 293ZM321.283 293.227C323.47 293.227 324.94 292.041 325.438 290.67L324.237 290.28C323.818 291.26 322.831 292.07 321.283 292.07C319.053 292.07 317.639 290.443 317.582 287.922H325.707V287.297C325.707 283.653 323.456 281.942 321.091 281.942C318.264 281.942 316.311 284.307 316.311 287.609C316.311 290.919 318.229 293.227 321.283 293.227ZM317.589 286.807C317.724 284.776 319.095 283.092 321.091 283.092C323.044 283.092 324.415 284.705 324.415 286.807H317.589ZM327.435 283.284H331.086V293H332.35V283.284H335.958V282.091H327.435V283.284ZM342.325 293.227C344.598 293.227 346.196 291.793 346.487 289.818H345.208C344.917 291.21 343.774 292.07 342.325 292.07C340.187 292.07 338.774 290.209 338.774 287.553C338.774 284.911 340.23 283.092 342.325 283.092C343.88 283.092 344.931 284.094 345.201 285.33H346.48C346.181 283.305 344.491 281.942 342.304 281.942C339.449 281.942 337.502 284.314 337.502 287.595C337.502 290.848 339.392 293.227 342.325 293.227ZM355.759 293H356.966V282.091H352.755C350.397 282.091 349.097 283.199 349.097 285.195C349.097 286.736 349.843 287.751 351.221 288.135L348.408 293H349.793L352.506 288.305C352.549 288.305 352.584 288.305 352.62 288.305H355.759V293ZM355.759 287.112H352.62C351.142 287.112 350.368 286.473 350.368 285.195C350.368 283.916 351.185 283.27 352.755 283.263H355.759V287.112ZM370.216 293.227C372.488 293.227 374.086 291.793 374.377 289.818H373.099C372.808 291.21 371.664 292.07 370.216 292.07C368.078 292.07 366.664 290.209 366.664 287.553C366.664 284.911 368.12 283.092 370.216 283.092C371.771 283.092 372.822 284.094 373.092 285.33H374.37C374.072 283.305 372.382 281.942 370.194 281.942C367.339 281.942 365.393 284.314 365.393 287.595C365.393 290.848 367.282 293.227 370.216 293.227ZM382.712 293H387.634C389.75 293 391.093 291.75 391.093 290.045C391.093 288.433 389.949 287.474 388.692 287.254C389.942 286.935 390.759 286.175 390.759 284.875C390.759 283.178 389.331 282.091 387.009 282.091H382.712V293ZM383.919 291.828V287.922H387.776C389.005 287.922 389.8 288.717 389.8 289.939C389.8 291.089 388.962 291.828 387.634 291.828H383.919ZM383.919 286.8V283.263H387.009C388.571 283.263 389.488 283.888 389.488 284.953C389.495 286.082 388.557 286.8 387.087 286.8H383.919ZM396.911 293.249C398.729 293.249 399.837 292.24 400.292 291.274H400.37V293H401.634V285.592C401.634 282.666 399.433 281.942 397.763 281.942C396.094 281.942 394.376 282.602 393.637 284.385L394.837 284.818C395.235 283.881 396.222 283.078 397.799 283.078C399.454 283.078 400.37 283.987 400.37 285.479V285.734C400.37 286.558 399.347 286.572 397.515 286.8C395.05 287.105 393.325 287.794 393.325 289.953C393.325 292.055 394.93 293.249 396.911 293.249ZM397.082 292.091C395.654 292.091 394.589 291.331 394.589 290.01C394.589 288.689 395.668 288.135 397.515 287.908C398.41 287.801 400.001 287.602 400.37 287.24V288.817C400.37 290.607 399.099 292.091 397.082 292.091ZM410.7 291.232L406.638 282.091H404.997V293H406.261V283.994L410.196 293H411.205L415.139 284.101V293H416.403V282.091H414.798L410.7 291.232ZM421.027 291.203V282.091H419.763V293H421.297L427.036 283.888V293H428.3V282.091H426.787L421.027 291.203ZM437.263 293H442.185C444.301 293 445.643 291.75 445.643 290.045C445.643 288.433 444.5 287.474 443.243 287.254C444.493 286.935 445.31 286.175 445.31 284.875C445.31 283.178 443.882 282.091 441.56 282.091H437.263V293ZM438.47 291.828V287.922H442.327C443.555 287.922 444.351 288.717 444.351 289.939C444.351 291.089 443.513 291.828 442.185 291.828H438.47ZM438.47 286.8V283.263H441.56C443.122 283.263 444.038 283.888 444.038 284.953C444.045 286.082 443.108 286.8 441.638 286.8H438.47ZM461.895 278C461.363 278.44 460.574 278.44 459.53 278.44C459.182 278.44 458.806 278.44 458.401 278.455C455.056 278.568 453.479 281.118 453.479 286.203V287.347C453.479 291.189 455.354 293.227 458.216 293.227C461.05 293.227 462.932 291.082 462.932 287.723C462.932 284.328 461 282.432 458.493 282.432C456.895 282.432 455.475 283.227 454.75 284.712H454.608C454.814 281.509 455.922 279.761 458.458 279.641C458.742 279.626 459.019 279.619 459.289 279.612C460.674 279.57 461.803 279.534 462.556 278.803L461.895 278ZM458.216 292.07C456.064 292.07 454.75 290.436 454.75 287.794C454.772 285.365 456.086 283.589 458.245 283.589C460.304 283.589 461.668 285.116 461.668 287.723C461.668 290.358 460.333 292.07 458.216 292.07ZM464.628 293H465.082C467.533 293 467.98 291.175 468.151 287.624L468.357 283.284H472.817V293H474.088V282.091H467.156L466.922 287.197C466.759 290.812 466.524 291.807 464.969 291.807H464.628V293ZM478.703 291.203V282.091H477.439V293H478.973L484.711 283.888V293H485.975V282.091H484.463L478.703 291.203ZM488.632 293H490.194L494.456 288.135H495.152V293H496.423V288.135H497.119L501.366 293H502.929L498.127 287.489L502.865 282.091H501.324L497.14 286.942H496.423V282.091H495.152V286.942H494.42L490.237 282.091H488.696L493.447 287.489L488.632 293ZM508.63 293.249C510.448 293.249 511.556 292.24 512.011 291.274H512.089V293H513.353V285.592C513.353 282.666 511.151 281.942 509.482 281.942C507.813 281.942 506.094 282.602 505.356 284.385L506.556 284.818C506.954 283.881 507.941 283.078 509.518 283.078C511.173 283.078 512.089 283.987 512.089 285.479V285.734C512.089 286.558 511.066 286.572 509.234 286.8C506.769 287.105 505.043 287.794 505.043 289.953C505.043 292.055 506.648 293.249 508.63 293.249ZM508.8 292.091C507.373 292.091 506.308 291.331 506.308 290.01C506.308 288.689 507.387 288.135 509.234 287.908C510.129 287.801 511.719 287.602 512.089 287.24V288.817C512.089 290.607 510.817 292.091 508.8 292.091ZM517.98 291.203V282.091H516.716V293H518.25L523.989 283.888V293H525.253V282.091H523.74L517.98 291.203ZM522.291 278.455C522.291 279.2 521.893 279.768 520.984 279.768C520.075 279.768 519.699 279.2 519.699 278.455H518.506C518.506 279.811 519.457 280.734 520.984 280.734C522.526 280.734 523.484 279.811 523.484 278.455H522.291ZM528.591 282.091V293H541.332V282.091H540.068V291.807H535.594V282.091H534.33V291.807H529.855V282.091H528.591ZM549.095 293.227C551.283 293.227 552.753 292.041 553.25 290.67L552.05 290.28C551.631 291.26 550.643 292.07 549.095 292.07C546.865 292.07 545.452 290.443 545.395 287.922H553.52V287.297C553.52 283.653 551.268 281.942 548.903 281.942C546.077 281.942 544.124 284.307 544.124 287.609C544.124 290.919 546.041 293.227 549.095 293.227ZM545.402 286.807C545.537 284.776 546.908 283.092 548.903 283.092C550.857 283.092 552.227 284.705 552.227 286.807H545.402ZM560.716 293.227C562.904 293.227 564.374 292.041 564.871 290.67L563.671 290.28C563.252 291.26 562.265 292.07 560.716 292.07C558.486 292.07 557.073 290.443 557.016 287.922H565.141V287.297C565.141 283.653 562.89 281.942 560.525 281.942C557.698 281.942 555.745 284.307 555.745 287.609C555.745 290.919 557.662 293.227 560.716 293.227ZM557.023 286.807C557.158 284.776 558.529 283.092 560.525 283.092C562.478 283.092 563.848 284.705 563.848 286.807H557.023ZM573.552 293H578.474C580.59 293 581.933 291.75 581.933 290.045C581.933 288.433 580.789 287.474 579.532 287.254C580.782 286.935 581.599 286.175 581.599 284.875C581.599 283.178 580.171 282.091 577.849 282.091H573.552V293ZM574.759 291.828V287.922H578.616C579.844 287.922 580.64 288.717 580.64 289.939C580.64 291.089 579.802 291.828 578.474 291.828H574.759ZM574.759 286.8V283.263H577.849C579.411 283.263 580.327 283.888 580.327 284.953C580.335 286.082 579.397 286.8 577.927 286.8H574.759ZM584.683 297.091H585.954V290.976H586.068C586.501 291.977 587.439 293.227 589.42 293.227C592.091 293.227 593.909 290.955 593.909 287.574C593.909 284.207 592.098 281.942 589.399 281.942C587.396 281.942 586.508 283.192 586.068 284.172H585.912V282.091H584.683V297.091ZM585.933 287.553C585.933 284.939 587.133 283.092 589.264 283.092C591.458 283.092 592.637 285.038 592.637 287.553C592.637 290.095 591.437 292.07 589.264 292.07C587.154 292.07 585.933 290.188 585.933 287.553ZM601.087 293.227C603.275 293.227 604.745 292.041 605.242 290.67L604.042 290.28C603.623 291.26 602.636 292.07 601.087 292.07C598.857 292.07 597.444 290.443 597.387 287.922H605.512V287.297C605.512 283.653 603.261 281.942 600.896 281.942C598.069 281.942 596.116 284.307 596.116 287.609C596.116 290.919 598.033 293.227 601.087 293.227ZM597.394 286.807C597.529 284.776 598.9 283.092 600.896 283.092C602.849 283.092 604.219 284.705 604.219 286.807H597.394ZM614.001 291.232L609.939 282.091H608.298V293H609.562V283.994L613.497 293H614.505L618.44 284.101V293H619.704V282.091H618.099L614.001 291.232ZM629.626 293H630.833V282.091H626.622C624.264 282.091 622.964 283.199 622.964 285.195C622.964 286.736 623.71 287.751 625.088 288.135L622.275 293H623.66L626.373 288.305C626.416 288.305 626.451 288.305 626.487 288.305H629.626V293ZM629.626 287.112H626.487C625.01 287.112 624.235 286.473 624.235 285.195C624.235 283.916 625.052 283.27 626.622 283.263H629.626V287.112Z" fill="#3F4E65"/>
<path d="M193.85 225.369C192.856 219.148 187.984 215.511 181.833 215.511C174.305 215.511 168.751 221.151 168.751 230.455C168.751 239.759 174.276 245.398 181.833 245.398C188.225 245.398 192.898 241.392 193.85 235.639L189.418 235.625C188.665 239.347 185.54 241.392 181.862 241.392C176.876 241.392 173.112 237.571 173.112 230.455C173.112 223.395 176.862 219.517 181.876 219.517C185.583 219.517 188.694 221.605 189.418 225.369H193.85ZM221.844 215.909H199.401V245H203.776V219.659H217.469V245H221.844V215.909ZM231.013 245L233.683 237.301H245.047L247.703 245H252.362L241.893 215.909H236.822L226.354 245H231.013ZM234.962 233.608L239.251 221.193H239.479L243.768 233.608H234.962ZM279.358 225.369C278.364 219.148 273.491 215.511 267.341 215.511C259.812 215.511 254.259 221.151 254.259 230.455C254.259 239.759 259.784 245.398 267.341 245.398C273.733 245.398 278.406 241.392 279.358 235.639L274.926 235.625C274.173 239.347 271.048 241.392 267.369 241.392C262.384 241.392 258.619 237.571 258.619 230.455C258.619 223.395 262.369 219.517 267.384 219.517C271.091 219.517 274.202 221.605 274.926 225.369H279.358ZM284.61 215.909V245H288.644L303.431 223.665H303.701V245H308.09V215.909H304.028L289.227 237.273H288.957V215.909H284.61ZM314.493 245H325.388C331.851 245 335.558 241.392 335.558 236.179C335.558 230.98 331.851 227.642 325.388 227.642H318.882V219.688H332.632V215.909H314.493V245ZM318.882 241.307V231.335H325.388C329.138 231.335 331.212 233.494 331.212 236.122C331.212 238.821 329.138 241.307 325.388 241.307H318.882ZM366.013 230.455C366.013 221.151 360.445 215.511 352.916 215.511C345.359 215.511 339.805 221.151 339.805 230.455C339.805 239.744 345.359 245.398 352.916 245.398C360.445 245.398 366.013 239.759 366.013 230.455ZM361.666 230.455C361.666 237.543 357.916 241.392 352.916 241.392C347.902 241.392 344.166 237.543 344.166 230.455C344.166 223.366 347.902 219.517 352.916 219.517C357.916 219.517 361.666 223.366 361.666 230.455ZM391.801 245.398C397.739 245.398 402.099 241.847 402.085 237.017C402.099 233.338 399.869 230.696 396.006 230.099V229.872C399.045 229.091 401.02 226.705 401.006 223.438C401.02 219.162 397.511 215.511 391.915 215.511C386.574 215.511 382.284 218.736 382.142 223.466H386.389C386.489 220.795 389.003 219.176 391.858 219.176C394.827 219.176 396.773 220.98 396.759 223.665C396.773 226.477 394.514 228.324 391.29 228.324H388.832V231.903H391.29C395.324 231.903 397.653 233.949 397.653 236.875C397.653 239.702 395.196 241.619 391.773 241.619C388.619 241.619 386.162 240 385.991 237.415H381.531C381.716 242.159 385.92 245.398 391.801 245.398ZM410.31 245L412.98 237.301H424.344L427 245H431.659L421.19 215.909H416.119L405.651 245H410.31ZM414.259 233.608L418.548 221.193H418.776L423.065 233.608H414.259ZM456.176 245.398C462.114 245.398 466.474 241.847 466.46 237.017C466.474 233.338 464.244 230.696 460.381 230.099V229.872C463.42 229.091 465.395 226.705 465.381 223.438C465.395 219.162 461.886 215.511 456.29 215.511C450.949 215.511 446.659 218.736 446.517 223.466H450.764C450.864 220.795 453.378 219.176 456.233 219.176C459.202 219.176 461.148 220.98 461.134 223.665C461.148 226.477 458.889 228.324 455.665 228.324H453.207V231.903H455.665C459.699 231.903 462.028 233.949 462.028 236.875C462.028 239.702 459.571 241.619 456.148 241.619C452.994 241.619 450.537 240 450.366 237.415H445.906C446.091 242.159 450.295 245.398 456.176 245.398ZM474.685 245L477.355 237.301H488.719L491.375 245H496.034L485.565 215.909H480.494L470.026 245H474.685ZM478.634 233.608L482.923 221.193H483.151L487.44 233.608H478.634ZM517.494 245H522.849L510.775 228.935L522.408 215.909H517.053L506.059 228.196H504.624V215.909H500.235V245H504.624V231.96H507.721L517.494 245ZM529.372 245L532.043 237.301H543.406L546.062 245H550.722L540.253 215.909H535.182L524.713 245H529.372ZM533.321 233.608L537.611 221.193H537.838L542.128 233.608H533.321ZM564.653 245.398C570.59 245.398 574.951 241.847 574.937 237.017C574.951 233.338 572.721 230.696 568.857 230.099V229.872C571.897 229.091 573.871 226.705 573.857 223.438C573.871 219.162 570.363 215.511 564.766 215.511C559.425 215.511 555.136 218.736 554.994 223.466H559.241C559.34 220.795 561.854 219.176 564.71 219.176C567.678 219.176 569.624 220.98 569.61 223.665C569.624 226.477 567.366 228.324 564.141 228.324H561.684V231.903H564.141C568.175 231.903 570.505 233.949 570.505 236.875C570.505 239.702 568.048 241.619 564.624 241.619C561.471 241.619 559.013 240 558.843 237.415H554.383C554.567 242.159 558.772 245.398 564.653 245.398Z" fill="#111111"/>
<rect x="342" y="123" width="59" height="59" rx="29.5" fill="#FFC85E"/>
<path d="M361.5 152.5L366.75 157.5L369.375 154.5" stroke="white" stroke-width="2" stroke-linecap="round" stroke-linejoin="round"/>
<path d="M367.5 152.5L372.75 157.5L381.5 147.5" stroke="white" stroke-width="2" stroke-linecap="round" stroke-linejoin="round"/>
<path d="M375.5 147.5L372 151.5" stroke="white" stroke-width="2" stroke-linecap="round" stroke-linejoin="round"/>
</svg>
